<svg xmlns="http://www.w3.org/2000/svg" xmlns:xlink="http://www.w3.org/1999/xlink" version="1.1" x="0px" y="0px" viewBox="0 0 100 125" enable-background="new 0 0 100 100" xml:space="preserve"><g><path d="M50,3.702c3.159,0,6.254,0.251,8.715,0.707c1.498,0.277,2.474,0.571,3.088,0.807l-0.725,1.366l-0.312,0.589v0.667v21.7   v0.529l0.201,0.488l21.062,51.42l0.026,0.064l0.03,0.064c0.049,0.104,0.098,0.217,0.146,0.347l0.018,0.042l0.013,0.03l0.006,0.015   c0.172,0.477,0.257,0.938,0.257,1.407c0,2.791-3.246,5.843-8.684,8.164C67.519,94.811,59.052,96.299,50,96.299   c-9.051,0-17.519-1.488-23.843-4.189c-5.437-2.321-8.683-5.373-8.683-8.164c0-0.47,0.084-0.931,0.257-1.407l0.007-0.017   l0.012-0.028l0.016-0.042c0.051-0.13,0.099-0.244,0.148-0.348l0.03-0.064l0.026-0.064l21.062-51.416l0.2-0.488v-0.528V7.838V7.172   l-0.312-0.589l-0.724-1.367c0.615-0.235,1.589-0.529,3.088-0.807C43.746,3.953,46.841,3.702,50,3.702 M50,1.019   c-8.309,0-15.045,1.612-15.045,3.601c0,0.068,0.01,0.136,0.025,0.203c-0.001,0.015-0.003,0.03-0.003,0.045l0.043,0.082   c0.033,0.086,0.078,0.17,0.135,0.254l1.396,2.635v21.704L15.487,80.958c-0.082,0.175-0.156,0.352-0.225,0.528l-0.058,0.136h0.005   c-0.275,0.758-0.419,1.533-0.419,2.323c0,8.305,15.764,15.036,35.209,15.036c19.446,0,35.209-6.731,35.209-15.036   c0-0.79-0.144-1.565-0.419-2.323h0.006l-0.058-0.136c-0.068-0.177-0.142-0.354-0.225-0.528L63.45,29.538v-21.7l1.396-2.635   c0.057-0.084,0.102-0.168,0.134-0.254l0.044-0.082c0-0.015-0.002-0.03-0.003-0.045c0.016-0.067,0.024-0.135,0.024-0.203   C65.045,2.631,58.31,1.019,50,1.019L50,1.019z"/><path d="M79.761,83.495l-0.004-0.011l-0.026-0.068c-0.026-0.067-0.049-0.123-0.07-0.167l-0.046-0.099l-0.013-0.026l-0.012-0.028   l-0.042-0.103L68.461,55.928C62.893,57.364,56.535,58.12,50,58.12c-6.534,0-12.891-0.756-18.46-2.192L20.453,82.992l-0.042,0.103   L20.4,83.122l-0.013,0.026l-0.047,0.1c-0.021,0.045-0.045,0.102-0.071,0.169l-0.026,0.067l-0.002,0.008   c-0.057,0.165-0.083,0.31-0.083,0.453c0,1.334,2.422,3.719,7.053,5.697C33.21,92.204,41.304,93.615,50,93.615   c8.697,0,16.79-1.411,22.789-3.973c4.631-1.979,7.054-4.363,7.054-5.697C79.843,83.802,79.816,83.658,79.761,83.495z    M58.937,79.521c-2.837,0-5.137-2.301-5.137-5.139c0-2.837,2.3-5.137,5.137-5.137c2.838,0,5.139,2.3,5.139,5.137   C64.075,77.22,61.774,79.521,58.937,79.521z M64.075,67.316c-1.755,0-3.176-1.422-3.176-3.175c0-1.754,1.421-3.175,3.176-3.175   c1.753,0,3.175,1.421,3.175,3.175C67.25,65.895,65.828,67.316,64.075,67.316z M70.425,85.87c-1.754,0-3.175-1.422-3.175-3.175   c0-1.754,1.421-3.175,3.175-3.175c1.753,0,3.175,1.421,3.175,3.175C73.6,84.448,72.178,85.87,70.425,85.87z"/><path d="M50,8.707c4.936,0,8.937-1.021,8.937-2.281H41.063C41.063,7.686,45.064,8.707,50,8.707z"/></g><text x="0" y="115" fill="#000000" font-size="5px" font-weight="bold" font-family="'Helvetica Neue', Helvetica, Arial-Unicode, Arial, Sans-serif">Created by Mark Caron</text><text x="0" y="120" fill="#000000" font-size="5px" font-weight="bold" font-family="'Helvetica Neue', Helvetica, Arial-Unicode, Arial, Sans-serif">from the Noun Project</text></svg>