<svg xmlns="http://www.w3.org/2000/svg" xmlns:xlink="http://www.w3.org/1999/xlink" version="1.1" x="0px" y="0px" viewBox="0 0 100 125" enable-background="new 0 0 100 100" xml:space="preserve"><g><path d="M32.7,19.3c-3.4,0.6-5.9,3.5-6.1,7c-0.2,3.4,1.9,6.4,5.1,7.4c0.3,0.1,0.8,0.2,1.3,0.2c0.6,0,1.2-0.1,1.8-0.6   c0.9-0.7,1.7-1.3,2.5-1.8l0.9-0.7c3.5-3.3,3-6,2.4-7.2C39.3,20.4,36,18.7,32.7,19.3z M36,28l-0.8,0.5c-0.8,0.6-1.7,1.2-2.5,1.7   c-1.7-0.5-2.7-2.1-2.7-3.8c0.1-1.9,1.4-3.4,3.2-3.7c0.2,0,0.4-0.1,0.7-0.1c1.5,0,2.9,0.9,3.5,2.2C37.8,25.6,37.2,26.8,36,28z"/><polygon points="37.1,67.2 33.9,70.5 30.6,67.2 28.1,69.7 31.4,73 28.1,76.3 30.6,78.7 33.9,75.5 37.1,78.7 39.6,76.3 36.3,73    39.6,69.7  "/><polygon points="52.7,67.2 49.5,70.5 46.2,67.2 43.7,69.7 47,73 43.7,76.3 46.2,78.7 49.5,75.5 52.7,78.7 55.2,76.3 52,73    55.2,69.7  "/><polygon points="69.2,67.2 65.9,70.5 62.6,67.2 60.1,69.7 63.4,73 60.1,76.3 62.6,78.7 65.9,75.5 69.2,78.7 71.7,76.3 68.4,73    71.7,69.7  "/><path d="M80.2,50.3c0-5.1-2-9.7-5.8-13.7c-2.6-2.8-5.6-5-8.6-7.2l-1.4-1.1c-2.3-1.7-2.7-4.4-1.1-6.7l0.5-0.7c0.3-0.3,0.5-0.7,0.8-1   c0.9-1.3,1.1-2.7,0.7-3.9c-0.4-1.3-1.4-2.3-2.9-2.8c-0.8-0.3-1.7-0.4-2.7-0.4c-1,0-1.9,0-2.8,0l1.3-6C58.3,5.9,57.7,5,56.9,5H42.8   c-0.9,0-1.5,1-1.3,1.8l1.6,5.9c-2.3,0-5,0.1-8.5,0.1c-2.5,0-5.6,0.3-8.1,2.7c-0.1,0.1-0.3,0.3-0.5,0.4c-0.4,0.4-0.9,0.7-1.1,0.9   C24.9,17,24.4,17.5,24,18c-0.4,0.4-0.7,0.9-0.9,1c-1,1-1.8,2.3-2.2,3.7c-1.6,5.6-0.2,10.6,4,14.6c-3.4,3.9-5.2,8.7-5.1,14.3   c0.1,7.9,0,15.8,0,23.8l0,4c0,2.7,0.3,6.2,2.9,9.2c2.3,3.4,8.2,6.3,12.1,6.3C39.5,95,44.4,95,49.6,95c4.9,0,10.1,0,15.5-0.1   c3.9,0,9.3-2.2,12.2-6.5c1.8-2.3,2.8-4.9,2.8-7.7l0-8C80.2,65.3,80.2,57.8,80.2,50.3z M76.7,72.7l0,8c0,2-0.7,3.8-1.9,5.4   c-3.3,4.5-6.7,5.3-9.6,5.3c-11.3,0.1-21.2,0.1-30.3,0c-3.2-0.1-8.1-3.1-9.5-5.2c-1.4-1.6-2-3.7-2-6.8l0-4c0-7.9,0-15.9,0-23.8   c0-4.9,1.4-8.9,4.5-12.3c1.3-1.4,1.2-2.9-0.4-4.4c-3.3-3.2-4.4-6.8-3.2-11.3c0.2-0.7,0.6-1.4,1.3-2.2l0,0c0.2-0.2,0.6-0.7,1.1-1.2   c0.4-0.4,0.8-0.9,0.9-1c0.2-0.2,0.5-0.4,0.8-0.7c0.2-0.1,0.3-0.3,0.5-0.4l0,0c0-0.1,0.1-0.1,0.1-0.1c0.2-0.2,0.3-0.3,0.4-0.4   c1.2-0.9,2.8-1.3,5.2-1.3c16.7-0.1,16.6,0,25,0c0.6,0,1.1,0.1,1.5,0.2c0.4,0.1,0.7,0.3,0.7,0.6c0.1,0.2,0,0.5-0.3,0.9   c-0.2,0.3-0.4,0.6-0.6,0.9l-0.6,0.8c-2.7,3.8-1.9,8.7,1.9,11.5l1.4,1.1c2.9,2.2,5.7,4.2,8.1,6.7c3.2,3.4,4.8,7.1,4.8,11.4   C76.7,57.8,76.7,65.3,76.7,72.7z"/></g><text x="0" y="115" fill="#000000" font-size="5px" font-weight="bold" font-family="'Helvetica Neue', Helvetica, Arial-Unicode, Arial, Sans-serif">Created by Lance Weisser</text><text x="0" y="120" fill="#000000" font-size="5px" font-weight="bold" font-family="'Helvetica Neue', Helvetica, Arial-Unicode, Arial, Sans-serif">from the Noun Project</text></svg>