<svg xmlns="http://www.w3.org/2000/svg" xmlns:xlink="http://www.w3.org/1999/xlink" version="1.1" x="0px" y="0px" viewBox="0 0 100 125" enable-background="new 0 0 100 100" xml:space="preserve"><g><g><path fill-rule="evenodd" clip-rule="evenodd" d="M63.86,82.808l4.618-4.607l4.874,4.861l2.988-2.98l-4.873-4.862l3.938-3.929    l-2.888-2.878l-3.938,3.928l-4.193-4.184l-2.988,2.982l4.192,4.183l-4.618,4.606L63.86,82.808z M59.729,4.353H41.271v10.768    h18.459V4.353z M75.305,31.483c3.61-0.163,6.492-3.128,6.492-6.771c0-3.748-3.047-6.787-6.803-6.787    c-3.758,0-6.805,3.039-6.805,6.787c0,0.76,0.131,1.488,0.362,2.17c-5.229-2.882-9.761-4.07-10.36-4.07v-6.153H42.809v6.153    c-1.503,0-27.688,7.454-27.688,30.403c0,7.931,0,38.003,0,38.003c0,2.647,2.713,5.429,5.443,5.429h59.872    c2.73,0,5.443-2.75,5.443-5.429c0,0,0-29.948,0-38.003C85.879,43.283,80.982,36.261,75.305,31.483z M74.994,21.998    c1.503,0,2.721,1.215,2.721,2.714c0,1.5-1.218,2.714-2.721,2.714c-1.505,0-2.722-1.215-2.722-2.714    C72.272,23.213,73.489,21.998,74.994,21.998z M21.924,53.215c0-10.436,5.491-23.074,20.412-23.074c0.666,0,1.561-0.035,2.721,0    C29.542,34.276,24.646,38.513,24.646,50.5C22.085,50.668,22.714,53.244,21.924,53.215z M76.65,84.341h-52.3v-16.92h52.3V84.341z     M46.17,82.808l4.619-4.607l4.874,4.861l2.987-2.98l-4.873-4.861l3.939-3.93l-2.888-2.878l-3.938,3.928l-4.193-4.184l-2.988,2.982    l4.193,4.183l-4.619,4.606L46.17,82.808z M28.48,82.808L33.1,78.2l4.874,4.861l2.989-2.98l-4.874-4.862l3.939-3.929l-2.887-2.878    l-3.938,3.928l-4.194-4.184l-2.989,2.982l4.193,4.183l-4.619,4.606L28.48,82.808z"/></g></g><text x="0" y="115" fill="#000000" font-size="5px" font-weight="bold" font-family="'Helvetica Neue', Helvetica, Arial-Unicode, Arial, Sans-serif">Created by Benjamin Harlow</text><text x="0" y="120" fill="#000000" font-size="5px" font-weight="bold" font-family="'Helvetica Neue', Helvetica, Arial-Unicode, Arial, Sans-serif">from the Noun Project</text></svg>